<?xml version="1.0" encoding="utf-8"?>
<!-- Generator: Adobe Illustrator 16.0.0, SVG Export Plug-In . SVG Version: 6.00 Build 0)  -->
<!DOCTYPE svg PUBLIC "-//W3C//DTD SVG 1.1//EN" "http://www.w3.org/Graphics/SVG/1.1/DTD/svg11.dtd">
<svg version="1.1" id="图层_1" xmlns="http://www.w3.org/2000/svg" xmlns:xlink="http://www.w3.org/1999/xlink" x="0px" y="0px"
	 width="141.909px" height="50.556px" viewBox="0 0 141.909 50.556" enable-background="new 0 0 141.909 50.556"
	 xml:space="preserve">
<g>
	<g>
		<path fill-rule="evenodd" clip-rule="evenodd" fill="none" d="M141.909,50.556c-47.208,0-94.383,0-141.595,0
			c0-16.735,0-33.471,0-50.242c47.163,0,94.361,0,141.595,0C141.909,17.013,141.909,33.749,141.909,50.556z M2.999,22.329
			c2.43,0,4.423,0.042,6.412-0.023c0.65-0.021,1.147-0.193,1.672,0.483c1.051,1.353,2.547,1.569,4.138,1.117
			c1.562-0.443,2.3-1.602,2.566-3.124c0.079-0.455,0.039-0.951,0.208-1.363c0.125-0.303,0.504-0.5,0.769-0.745
			c0.232,0.277,0.574,0.521,0.672,0.84c0.174,0.566,0.145,1.194,0.301,1.769c0.364,1.332,1.147,2.284,2.548,2.654
			c2.498,0.66,4.466-0.625,4.985-3.224c0.163-0.815,0.465-1.602,0.629-2.149c0-0.784-0.115-1.322,0.018-1.792
			c1.717-6.089-2.512-11.754-8.835-11.795C12.597,4.933,7.352,9.461,6.161,16.239C5.77,18.466,5.243,20.565,2.999,22.329z
			 M90.425,17.031c0.219,0.582,0.331,0.83,0.406,1.089c1,3.462,2.021,6.918,2.971,10.395c0.21,0.768,0.529,1.111,1.326,1.03
			c0.458-0.047,0.935-0.069,1.386,0.004c1.103,0.179,1.512-0.37,1.807-1.354c1.381-4.602,2.829-9.184,4.254-13.772
			c0.237-0.766,0.478-1.53,0.717-2.299c-1.063-0.318-1.499-0.021-1.77,0.897c-1.123,3.811-2.321,7.599-3.498,11.394
			c-0.227,0.728-0.48,1.449-0.722,2.173c-0.088-0.006-0.177-0.011-0.266-0.016c-1.365-4.848-2.731-9.696-4.074-14.462
			c-1.473,0-2.768,0-4.234,0c1.045,1.299,1.104,2.517,0.609,3.902c-0.713,1.999-1.253,4.06-1.876,6.092
			c-0.47,1.533-0.955,3.063-1.554,4.979c-1.501-5.29-2.885-10.167-4.251-14.983c-1.431,0-2.732,0-3.991,0
			c0.321,0.905,0.654,1.709,0.895,2.541c1.322,4.571,2.645,9.143,3.908,13.73c0.235,0.854,0.566,1.298,1.494,1.173
			c0.409-0.056,0.839-0.058,1.247,0c1.078,0.154,1.494-0.324,1.79-1.354C88.042,24.552,89.21,20.949,90.425,17.031z M42.135,29.476
			c0-2.536,0-4.919,0-7.268c2.846-0.501,2.948-0.46,4.306,1.683c1.014,1.602,2.004,3.218,3.051,4.797
			c0.23,0.347,0.638,0.769,0.996,0.802c1.132,0.103,2.279,0.038,3.681,0.038c-1.595-2.569-3.056-4.92-4.667-7.514
			c1.282,0,2.229,0,3.237,0c0-3.387,0-6.639,0-9.934c-4.92,0-9.745,0-14.369,0c0,5.837,0,11.59,0,17.396
			C39.685,29.476,40.782,29.476,42.135,29.476z M26.633,31.978c-1.524,0.615-2.839,1.263-4.225,1.673
			c-1.484,0.438-2.433-0.524-2.642-2.466c-0.108-1.004-0.8-1.517-1.614-1.034c-0.341,0.201-0.481,0.883-0.555,1.37
			c-0.252,1.662-1.297,2.605-2.614,2.149c-1.381-0.479-2.714-1.101-4.176-1.704c-0.583,2.388-0.326,4.571,1.306,6.666
			c1.573,2.021,2.797,4.312,4.345,6.354c0.438,0.578,1.468,0.963,2.23,0.97c0.769,0.006,1.827-0.354,2.261-0.929
			c1.572-2.079,2.823-4.404,4.41-6.471C26.944,36.49,27.217,34.332,26.633,31.978z M120.857,12.062c0,5.819,0,11.572,0,17.38
			c4.286,0,8.372,0,12.49,0c0-4.084,0-8.071,0-12.198c-2.999,0-5.889,0-8.946,0c0-1.814,0-3.493,0-5.182
			C123.043,12.062,121.858,12.062,120.857,12.062z M117.817,17.358c-4.297,0-8.506,0-12.502,0c0,4.087,0,8.077,0,12.057
			c4.308,0,8.391,0,12.444,0c0-1.343,0-2.563,0-3.8c-1.291,0-2.471,0-3.575,0c0.071,0.898,0.138,1.743,0.208,2.641
			c-1.924,0-3.655,0-5.392,0c0-1.477,0-2.874,0-4.395c3.004,0,5.897,0,8.816,0C117.817,21.627,117.817,19.522,117.817,17.358z
			 M62.799,17.315c0,4.09,0,8.083,0,12.12c4.287,0,8.367,0,12.458,0c0-4.091,0-8.078,0-12.12C71,17.315,66.854,17.315,62.799,17.315
			z M7.519,27.202c-1.41,0.552-1.872,1.477-1.072,2.43c0.572,0.683,1.548,1.45,2.334,1.439c1.557-0.02,3.277-0.228,4.627-0.936
			c3.585-1.878,7.022-2.021,10.515,0.035c1.493,0.88,3.087,1.211,4.789,0.972c1.177-0.166,2.082-0.77,2.483-1.933
			c0.371-1.076-0.146-1.751-1.359-1.864c0.231,1.315-0.144,1.836-1.41,1.848c-1.208,0.01-2.137-0.474-2.63-1.647
			c-1.053-2.504-2.073-3.1-4.89-2.968c-1.285,0.06-2.582,0.135-3.86,0.038c-3.192-0.242-4.055,0.27-5.514,3.061
			c-0.336,0.644-1.165,1.213-1.884,1.435C8.167,29.567,7.411,28.837,7.519,27.202z M59.652,17.356c-1.313,0-2.52,0-3.527,0
			c0,4.083,0,8.073,0,12.092c1.298,0,2.381,0,3.527,0C59.652,25.402,59.652,21.443,59.652,17.356z M41.876,42.495
			c-0.142-0.005-0.285-0.01-0.427-0.016c-0.416-1.257-0.809-2.521-1.265-3.765c-0.094-0.256-0.389-0.513-0.649-0.602
			c-0.135-0.046-0.569,0.269-0.573,0.427c-0.042,1.747-0.026,3.496-0.026,5.244c0.14,0.002,0.279,0.003,0.418,0.005
			c0-1.6,0-3.199,0-4.799c0.622,0.843,0.857,1.765,1.25,2.614c0.243,0.525,0.725,0.939,1.1,1.403
			c0.343-0.446,0.786-0.849,1.006-1.349c0.387-0.879,0.639-1.818,0.947-2.733c0.123,0.023,0.245,0.047,0.368,0.069
			c0,1.598,0,3.194,0,4.792c0.14-0.002,0.28-0.005,0.419-0.007c0-1.534,0.036-3.068-0.026-4.6c-0.015-0.372-0.354-0.731-0.544-1.097
			c-0.278,0.313-0.669,0.58-0.813,0.945C42.616,40.165,42.264,41.337,41.876,42.495z M59.607,14.948c0-1.071,0-1.971,0-2.854
			c-1.193,0-2.274,0-3.374,0c0,1.005,0,1.904,0,2.854C57.406,14.948,58.491,14.948,59.607,14.948z M62.689,41.448
			c0.08,0.855,0.151,1.608,0.221,2.361c0.076-0.014,0.151-0.028,0.227-0.043c0-1.869,0-3.737,0-5.606
			c-0.117,0.003-0.233,0.007-0.35,0.011c0,0.849,0,1.698,0,2.579c-1.095,0-2.034,0-2.98,0c-0.076-0.924-0.146-1.766-0.215-2.607
			c-0.076,0.014-0.153,0.026-0.229,0.039c0,1.867,0,3.735,0,5.603c0.116-0.004,0.233-0.007,0.35-0.011c0-0.757,0-1.514,0-2.325
			C60.771,41.448,61.676,41.448,62.689,41.448z M50.635,40.023c-0.061-0.103-0.123-0.206-0.184-0.31
			c-0.764,0.424-1.528,0.849-2.424,1.345c0-0.751,0.014-1.256-0.004-1.76c-0.018-0.481-0.069-0.961-0.105-1.441
			c-0.091,0.014-0.183,0.026-0.273,0.04c0,1.963,0,3.927,0,5.89c0.082,0.009,0.164,0.018,0.245,0.025
			c0.092-0.405,0.184-0.811,0.293-1.293c0.791,0.449,1.53,0.868,2.269,1.287c0.066-0.087,0.133-0.175,0.199-0.263
			c-0.785-0.576-1.57-1.152-2.483-1.822C49.096,41.084,49.866,40.554,50.635,40.023z M52.223,39.821
			c-0.133,0.006-0.267,0.012-0.4,0.018c-0.417,2.247-0.218,3.446,0.902,3.771c0.675,0.195,1.632,0.025,2.25-0.34
			c0.81-0.479,0.82-2.365,0.026-3.803c0,0.986-0.011,1.604,0.002,2.222c0.021,0.98-0.37,1.639-1.419,1.62
			c-1.055-0.02-1.397-0.712-1.364-1.679C52.239,41.027,52.223,40.424,52.223,39.821z M66.567,40.167
			c-0.536-0.552-0.96-0.988-1.326-1.364c-0.261,0.371-0.558,0.792-0.614,0.872c0.152,0.935,0.347,1.641,0.364,2.352
			c0.026,1.104,0.366,1.794,1.669,1.685c-1.583-0.783-1.037-2.137-1.057-3.334C65.963,40.299,66.264,40.233,66.567,40.167z
			 M46.014,39.732c-0.086,0.004-0.172,0.007-0.258,0.011c0,1.348,0,2.696,0,4.045c0.086-0.006,0.172-0.011,0.258-0.016
			C46.014,42.426,46.014,41.079,46.014,39.732z"/>
		<path fill-rule="evenodd" clip-rule="evenodd" d="M2.999,22.329c2.244-1.763,2.771-3.863,3.162-6.089
			C7.352,9.461,12.597,4.933,19.083,4.976c6.323,0.041,10.553,5.706,8.835,11.795c-0.132,0.469-0.018,1.008-0.018,1.792
			c-0.164,0.548-0.466,1.334-0.629,2.149c-0.519,2.6-2.487,3.884-4.985,3.224c-1.401-0.37-2.185-1.322-2.548-2.654
			c-0.157-0.574-0.127-1.202-0.301-1.769c-0.098-0.319-0.44-0.563-0.672-0.84c-0.265,0.245-0.645,0.442-0.769,0.745
			c-0.17,0.413-0.129,0.908-0.208,1.363c-0.266,1.521-1.004,2.68-2.566,3.124c-1.591,0.452-3.087,0.236-4.138-1.117
			c-0.525-0.676-1.022-0.504-1.672-0.483C7.422,22.37,5.429,22.329,2.999,22.329z M23.447,17.751
			c-2.045-0.008-3.142,0.655-3.152,1.905c-0.018,2.076,1.234,3.56,3.043,3.607c1.892,0.05,3.174-1.37,3.224-3.569
			C26.591,18.419,25.532,17.759,23.447,17.751z M24.556,16.601c-1.121-0.951-2.715-0.837-4.277-0.84
			c-0.02-0.151-0.04-0.303-0.06-0.455c1.541-0.469,3.082-0.938,4.388-1.335c-2.881-0.751-6.151,0.573-8.165,3.772
			c1.357,0.034,2.518,0.231,3.616,0.051C21.594,17.541,23.083,17.005,24.556,16.601z M16.243,18.238
			c-1.625,1.3-3.124,2.499-4.692,3.754c0.612,1.115,1.75,1.411,3.066,1.191c1.459-0.245,2.193-1.243,2.459-3.097
			C17.211,19.146,17.032,18.441,16.243,18.238z"/>
		<path fill-rule="evenodd" clip-rule="evenodd" d="M90.425,17.031C89.21,20.949,88.042,24.552,87,28.191
			c-0.296,1.03-0.712,1.509-1.79,1.354c-0.408-0.058-0.838-0.056-1.247,0c-0.928,0.125-1.259-0.318-1.494-1.173
			c-1.264-4.588-2.586-9.159-3.908-13.73c-0.24-0.831-0.573-1.636-0.895-2.541c1.259,0,2.561,0,3.991,0
			c1.366,4.816,2.75,9.693,4.251,14.983c0.599-1.917,1.084-3.446,1.554-4.979c0.623-2.032,1.163-4.093,1.876-6.092
			c0.494-1.386,0.436-2.604-0.609-3.902c1.467,0,2.762,0,4.234,0c1.343,4.767,2.709,9.614,4.074,14.462
			c0.089,0.005,0.178,0.01,0.266,0.016c0.241-0.725,0.495-1.445,0.722-2.173c1.177-3.795,2.375-7.583,3.498-11.394
			c0.271-0.919,0.707-1.215,1.77-0.897c-0.239,0.769-0.479,1.533-0.717,2.299c-1.425,4.589-2.873,9.17-4.254,13.772
			c-0.295,0.983-0.704,1.532-1.807,1.354c-0.451-0.073-0.928-0.051-1.386-0.004c-0.797,0.081-1.116-0.263-1.326-1.03
			c-0.949-3.477-1.971-6.933-2.971-10.395C90.756,17.86,90.644,17.612,90.425,17.031z"/>
		<path fill-rule="evenodd" clip-rule="evenodd" d="M42.135,29.476c-1.353,0-2.45,0-3.765,0c0-5.806,0-11.559,0-17.396
			c4.624,0,9.449,0,14.369,0c0,3.295,0,6.546,0,9.934c-1.008,0-1.955,0-3.237,0c1.611,2.593,3.071,4.944,4.667,7.514
			c-1.402,0-2.549,0.064-3.681-0.038c-0.358-0.033-0.766-0.455-0.996-0.802c-1.047-1.579-2.037-3.195-3.051-4.797
			c-1.357-2.143-1.459-2.184-4.306-1.683C42.135,24.557,42.135,26.939,42.135,29.476z M49.09,20.786c0-2.551,0-4.974,0-7.404
			c-2.358,0-4.635,0-6.867,0c0,2.534,0,4.95,0,7.404C44.553,20.786,46.759,20.786,49.09,20.786z"/>
		<path fill-rule="evenodd" clip-rule="evenodd" d="M26.633,31.978c0.584,2.354,0.311,4.513-1.275,6.579
			c-1.587,2.066-2.837,4.392-4.41,6.471c-0.435,0.575-1.493,0.935-2.261,0.929c-0.763-0.007-1.793-0.392-2.23-0.97
			c-1.547-2.043-2.772-4.333-4.345-6.354c-1.631-2.095-1.889-4.278-1.306-6.666c1.462,0.604,2.795,1.225,4.176,1.704
			c1.317,0.456,2.362-0.487,2.614-2.149c0.074-0.487,0.214-1.169,0.555-1.37c0.814-0.482,1.506,0.03,1.614,1.034
			c0.208,1.941,1.157,2.904,2.642,2.466C23.793,33.24,25.109,32.593,26.633,31.978z"/>
		<path fill-rule="evenodd" clip-rule="evenodd" d="M120.857,12.062c1.001,0,2.187,0,3.544,0c0,1.688,0,3.367,0,5.182
			c3.058,0,5.947,0,8.946,0c0,4.127,0,8.114,0,12.198c-4.118,0-8.204,0-12.49,0C120.857,23.634,120.857,17.881,120.857,12.062z
			 M124.511,28.225c1.83,0,3.592,0,5.337,0c0-3.269,0-6.428,0-9.605c-1.832,0-3.561,0-5.337,0
			C124.511,21.873,124.511,25.033,124.511,28.225z"/>
		<path fill-rule="evenodd" clip-rule="evenodd" d="M117.817,17.358c0,2.164,0,4.269,0,6.502c-2.919,0-5.813,0-8.816,0
			c0,1.521,0,2.918,0,4.395c1.736,0,3.468,0,5.392,0c-0.07-0.897-0.137-1.742-0.208-2.641c1.104,0,2.284,0,3.575,0
			c0,1.237,0,2.457,0,3.8c-4.054,0-8.137,0-12.444,0c0-3.979,0-7.97,0-12.057C109.311,17.358,113.52,17.358,117.817,17.358z
			 M108.948,22.627c1.888,0,3.611,0,5.375,0c0-1.375,0-2.645,0-3.995c-1.829,0-3.584,0-5.375,0
			C108.948,20.011,108.948,21.284,108.948,22.627z"/>
		<path fill-rule="evenodd" clip-rule="evenodd" d="M62.799,17.315c4.055,0,8.2,0,12.458,0c0,4.042,0,8.029,0,12.12
			c-4.091,0-8.171,0-12.458,0C62.799,25.397,62.799,21.405,62.799,17.315z M66.443,28.246c1.838,0,3.568,0,5.336,0
			c0-3.253,0-6.42,0-9.622c-1.825,0-3.554,0-5.336,0C66.443,21.855,66.443,24.989,66.443,28.246z"/>
		<path fill-rule="evenodd" clip-rule="evenodd" d="M7.519,27.202c-0.108,1.635,0.648,2.365,2.128,1.909
			c0.72-0.222,1.548-0.791,1.884-1.435c1.459-2.792,2.322-3.303,5.514-3.061c1.279,0.097,2.575,0.022,3.86-0.038
			c2.817-0.132,3.837,0.464,4.89,2.968c0.493,1.174,1.422,1.657,2.63,1.647c1.267-0.012,1.642-0.532,1.41-1.848
			c1.213,0.113,1.73,0.788,1.359,1.864c-0.401,1.163-1.306,1.767-2.483,1.933c-1.702,0.239-3.296-0.092-4.789-0.972
			c-3.493-2.057-6.929-1.913-10.515-0.035c-1.35,0.708-3.07,0.916-4.627,0.936c-0.786,0.011-1.762-0.757-2.334-1.439
			C5.647,28.679,6.109,27.754,7.519,27.202z"/>
		<path fill-rule="evenodd" clip-rule="evenodd" d="M59.652,17.356c0,4.087,0,8.046,0,12.092c-1.146,0-2.229,0-3.527,0
			c0-4.019,0-8.008,0-12.092C57.132,17.356,58.338,17.356,59.652,17.356z"/>
		<path fill-rule="evenodd" clip-rule="evenodd" d="M41.876,42.495c0.388-1.158,0.74-2.33,1.186-3.466
			c0.143-0.365,0.535-0.633,0.813-0.945c0.19,0.365,0.529,0.725,0.544,1.097c0.062,1.531,0.026,3.065,0.026,4.6
			c-0.14,0.002-0.28,0.005-0.419,0.007c0-1.598,0-3.194,0-4.792c-0.123-0.022-0.245-0.046-0.368-0.069
			c-0.308,0.915-0.56,1.854-0.947,2.733c-0.221,0.5-0.664,0.902-1.006,1.349c-0.375-0.464-0.857-0.878-1.1-1.403
			c-0.393-0.85-0.627-1.771-1.25-2.614c0,1.6,0,3.199,0,4.799c-0.14-0.002-0.279-0.003-0.418-0.005c0-1.748-0.016-3.497,0.026-5.244
			c0.004-0.158,0.438-0.473,0.573-0.427c0.26,0.089,0.555,0.346,0.649,0.602c0.456,1.243,0.849,2.508,1.265,3.765
			C41.591,42.485,41.734,42.49,41.876,42.495z"/>
		<path fill-rule="evenodd" clip-rule="evenodd" d="M59.607,14.948c-1.116,0-2.202,0-3.374,0c0-0.949,0-1.849,0-2.854
			c1.1,0,2.181,0,3.374,0C59.607,12.977,59.607,13.877,59.607,14.948z"/>
		<path fill-rule="evenodd" clip-rule="evenodd" d="M62.689,41.448c-1.013,0-1.919,0-2.977,0c0,0.812,0,1.568,0,2.325
			c-0.117,0.004-0.233,0.007-0.35,0.011c0-1.867,0-3.735,0-5.603c0.076-0.013,0.153-0.025,0.229-0.039
			c0.07,0.842,0.139,1.684,0.215,2.607c0.946,0,1.885,0,2.98,0c0-0.881,0-1.73,0-2.579c0.117-0.004,0.233-0.008,0.35-0.011
			c0,1.869,0,3.737,0,5.606c-0.075,0.015-0.151,0.029-0.227,0.043C62.84,43.057,62.77,42.304,62.689,41.448z"/>
		<path fill-rule="evenodd" clip-rule="evenodd" d="M50.635,40.023c-0.77,0.53-1.539,1.061-2.466,1.698
			c0.913,0.67,1.698,1.246,2.483,1.822c-0.066,0.088-0.133,0.176-0.199,0.263c-0.739-0.419-1.479-0.838-2.269-1.287
			c-0.109,0.482-0.201,0.888-0.293,1.293c-0.082-0.008-0.164-0.017-0.245-0.025c0-1.963,0-3.927,0-5.89
			c0.091-0.014,0.182-0.026,0.273-0.04c0.037,0.48,0.088,0.96,0.105,1.441c0.018,0.504,0.004,1.009,0.004,1.76
			c0.896-0.496,1.66-0.921,2.424-1.345C50.513,39.817,50.574,39.921,50.635,40.023z"/>
		<path fill-rule="evenodd" clip-rule="evenodd" d="M52.223,39.821c0,0.603,0.017,1.206-0.004,1.809
			c-0.033,0.967,0.309,1.659,1.364,1.679c1.049,0.019,1.44-0.64,1.419-1.62C54.988,41.07,55,40.453,55,39.467
			c0.794,1.438,0.784,3.323-0.026,3.803c-0.617,0.365-1.574,0.535-2.25,0.34c-1.12-0.324-1.318-1.523-0.902-3.771
			C51.956,39.833,52.089,39.827,52.223,39.821z"/>
		<path fill-rule="evenodd" clip-rule="evenodd" d="M66.567,40.167c-0.303,0.066-0.604,0.132-0.964,0.21
			c0.02,1.197-0.525,2.551,1.057,3.334c-1.303,0.109-1.643-0.581-1.669-1.685c-0.017-0.711-0.212-1.417-0.364-2.352
			c0.057-0.08,0.353-0.501,0.614-0.872C65.607,39.179,66.032,39.615,66.567,40.167z"/>
		<path fill-rule="evenodd" clip-rule="evenodd" d="M46.014,39.732c0,1.347,0,2.693,0,4.04c-0.086,0.005-0.172,0.01-0.258,0.016
			c0-1.349,0-2.697,0-4.045C45.842,39.739,45.928,39.736,46.014,39.732z"/>
		<path fill-rule="evenodd" clip-rule="evenodd" fill="none" d="M23.447,17.751c2.084,0.008,3.144,0.668,3.115,1.943
			c-0.049,2.199-1.332,3.62-3.224,3.569c-1.809-0.047-3.061-1.531-3.043-3.607C20.306,18.406,21.402,17.743,23.447,17.751z"/>
		<path fill-rule="evenodd" clip-rule="evenodd" fill="none" d="M24.556,16.601c-1.473,0.405-2.962,0.94-4.499,1.194
			c-1.098,0.181-2.258-0.017-3.616-0.051c2.014-3.199,5.284-4.523,8.165-3.772c-1.307,0.397-2.847,0.866-4.388,1.335
			c0.02,0.151,0.04,0.303,0.06,0.455C21.841,15.763,23.436,15.649,24.556,16.601z"/>
		<path fill-rule="evenodd" clip-rule="evenodd" fill="none" d="M16.243,18.238c0.79,0.203,0.969,0.907,0.833,1.848
			c-0.267,1.854-1,2.853-2.459,3.097c-1.316,0.22-2.454-0.076-3.066-1.191C13.119,20.737,14.618,19.538,16.243,18.238z"/>
		<path fill-rule="evenodd" clip-rule="evenodd" fill="none" d="M49.09,20.786c-2.332,0-4.538,0-6.867,0c0-2.454,0-4.87,0-7.404
			c2.232,0,4.509,0,6.867,0C49.09,15.812,49.09,18.234,49.09,20.786z"/>
		<path fill-rule="evenodd" clip-rule="evenodd" fill="none" d="M124.511,28.225c0-3.191,0-6.352,0-9.605c1.776,0,3.505,0,5.337,0
			c0,3.177,0,6.336,0,9.605C128.103,28.225,126.341,28.225,124.511,28.225z"/>
		<path fill-rule="evenodd" clip-rule="evenodd" fill="none" d="M108.948,22.627c0-1.344,0-2.617,0-3.995c1.791,0,3.546,0,5.375,0
			c0,1.35,0,2.62,0,3.995C112.559,22.627,110.835,22.627,108.948,22.627z"/>
		<path fill-rule="evenodd" clip-rule="evenodd" fill="none" d="M66.443,28.246c0-3.257,0-6.391,0-9.622c1.782,0,3.511,0,5.336,0
			c0,3.202,0,6.369,0,9.622C70.012,28.246,68.282,28.246,66.443,28.246z"/>
	</g>
</g>
</svg>
